# File created by Blade
# Date/Time:  Tue Apr 07 20:57:09 2015
# Frame Rate: 120.000 fps
#------------------------------------------------------
:FULLY-SPECIFIED
:DEGREES
785
root 37.066666 30.288928 13.209689 366.518440 -77.223788 -702.039531
Spine -14.020898 -20.926692 3.004561
Head 25.115527 -2.679173 1.572255
LeftShoulder -13.479957 22.555322 38.969944
LeftArm 117.000877 -61.491634 -88.341943
LeftForeArm 2.759937 -0.000000 15.306835
LeftHand 15.363190 -0.000000 25.240531
LeftHandThumb1 -26.253704 0.000000 33.147579
RightShoulder -11.241085 23.141180 -48.064816
RightArm 32.502435 22.995089 26.222970
RightForeArm -21.263316 -0.000000 18.317515
RightHand 15.074550 -0.000000 -18.264605
RightHandThumb1 -24.326973 -0.000000 -32.862282
LeftUpLeg 0.953830 2.607469 -6.050813
LeftLeg -2.258912 -0.000000 0.000000
LeftFoot -13.739418 11.744704 -22.906449
LeftToeBase -25.321208 -0.000000 0.000000
RightUpLeg -60.829640 -14.711481 4.310382
RightLeg 32.499179 -0.000000 -0.000000
RightFoot 3.448607 -11.723084 2.831146
RightToeBase -5.147535 -0.000000 0.000000
786
root 37.239187 30.248359 13.223925 367.177451 -77.154754 -703.085801
Spine -13.860949 -20.906532 2.813687
Head 24.489969 -2.867680 1.913270
LeftShoulder -13.643382 22.434111 39.162730
LeftArm 116.844865 -62.178329 -88.221920
LeftForeArm 3.208353 -0.000000 14.739333
LeftHand 14.884917 0.000000 24.607385
LeftHandThumb1 -26.253704 0.000000 33.147579
RightShoulder -11.600739 23.093035 -48.169308
RightArm 32.427922 23.227747 26.036494
RightForeArm -21.755997 -0.000000 18.467537
RightHand 14.929549 -0.000000 -19.125478
RightHandThumb1 -24.326973 -0.000000 -32.862282
LeftUpLeg 1.049570 2.670545 -5.946941
LeftLeg -2.194368 -0.000000 0.000000
LeftFoot -14.784747 11.575665 -22.673426
LeftToeBase -23.981157 -0.000000 0.000000
RightUpLeg -60.637990 -14.763066 4.439833
RightLeg 32.191396 -0.000000 -0.000000
RightFoot 3.979450 -11.786805 2.696490
RightToeBase -5.073004 -0.000000 0.000000
787
root 37.406027 30.217548 13.236048 367.596828 -77.055990 -703.856214
Spine -13.731062 -20.945345 2.565381
Head 23.962680 -3.029020 2.234540
LeftShoulder -13.766355 22.387111 39.342699
LeftArm 117.123697 -62.809261 -88.546980
LeftForeArm 3.689787 -0.000000 14.110397
LeftHand 14.644825 0.000000 24.033106
LeftHandThumb1 -26.253704 0.000000 33.147579
RightShoulder -11.920458 23.160315 -48.294734
RightArm 32.269576 23.492992 25.894355
RightForeArm -22.163196 -0.000000 18.657724
RightHand 14.696480 0.000000 -17.790864
RightHandThumb1 -24.326973 -0.000000 -32.862282
LeftUpLeg 1.187196 2.605610 -5.917579
LeftLeg -2.277688 -0.000000 0.000000
LeftFoot -15.654972 11.610579 -22.655188
LeftToeBase -22.842720 -0.000000 0.000000
RightUpLeg -60.428439 -14.817627 4.508348
RightLeg 31.803524 -0.000000 -0.000000
RightFoot 4.547973 -11.912118 2.497075
RightToeBase -5.021169 -0.000000 0.000000
788
root 37.567066 30.195350 13.249173 367.509507 -76.933908 -704.078669
Spine -13.609814 -20.978167 2.149677
Head 23.493444 -3.303403 2.612845
LeftShoulder -13.892756 22.159423 39.605367
LeftArm 116.579077 -63.487370 -88.024830
LeftForeArm 3.752287 -0.000000 13.457900
LeftHand 14.434938 -0.000000 23.781644
LeftHandThumb1 -26.253704 0.000000 33.147579
RightShoulder -12.332597 23.108692 -48.403436
RightArm 32.222252 23.618563 25.745727
RightForeArm -22.791428 -0.000000 18.576033
RightHand 14.737284 -0.000000 -19.639869
RightHandThumb1 -24.326973 -0.000000 -32.862282
LeftUpLeg 1.384871 2.423908 -6.021536
LeftLeg -2.571732 -0.000000 0.000000
LeftFoot -16.386544 11.931982 -22.657380
LeftToeBase -21.671610 -0.000000 0.000000
RightUpLeg -60.227394 -14.905262 4.468247
RightLeg 31.391817 -0.000000 -0.000000
RightFoot 5.101619 -12.052598 2.275203
RightToeBase -4.836827 -0.000000 0.000000
789
root 37.717809 30.182584 13.258861 367.247076 -76.793801 -704.082987
Spine -13.543470 -21.063273 1.694274
Head 23.106932 -3.513611 2.995402
LeftShoulder -14.066699 21.906407 39.843884
LeftArm 115.682278 -64.112587 -87.112660
LeftForeArm 3.977827 -0.000000 12.831566
LeftHand 14.025691 0.000000 23.786760
LeftHandThumb1 -26.253704 0.000000 33.147579
RightShoulder -12.700287 23.086660 -48.504973
RightArm 32.183760 23.757112 25.595588
RightForeArm -23.136775 -0.000000 18.406096
RightHand 14.887024 -0.000000 -19.940949
RightHandThumb1 -24.326973 -0.000000 -32.862282
LeftUpLeg 1.618350 2.315033 -6.163878
LeftLeg -3.010281 -0.000000 0.000000
LeftFoot -16.916824 12.288869 -22.686723
LeftToeBase -20.469098 -0.000000 0.000000
RightUpLeg -60.032654 -15.018982 4.410561
RightLeg 30.947863 -0.000000 -0.000000
RightFoot 5.667769 -12.206114 2.086255
RightToeBase -4.768453 -0.000000 0.000000
